<svg xmlns="http://www.w3.org/2000/svg" viewBox="0 0 100 125" x="0px" y="0px"><path d="M23.9,46.87l-3.25,4.05-1.89,6.82c-.04,.16-.14,.3-.27,.4l-3.6,2.69c-.13,.1-.29,.15-.45,.15-.01,0-.02,0-.04,0l-.45,9.6h11.07l-1.12-23.7Z"/><path d="M17.38,57.09l1.86-6.72c.03-.1,.07-.19,.14-.27l3.88-4.83c.14-.17,.34-.26,.55-.27l-.3-6.43H15.46l-.98,20.69,2.9-2.16Z"/><path d="M43.12,65.56c-.1,0-.2-.02-.29-.06l-6.44-2.74c-.12-.05-.23-.14-.31-.24l-3.17-4.27-.58,12.32h11.07l-.24-5.02s-.02,0-.04,0Z"/><path d="M33.83,38.57l-.84,17.76c.22,.01,.43,.1,.57,.29l3.6,4.84,5.92,2.51-1.2-25.4h-8.05Z"/><polygon points="58.94 41.75 57.57 70.57 68.64 70.57 67.4 44.19 58.94 41.75"/><polygon points="75.6 57.54 74.98 70.57 86.05 70.57 85.64 61.85 75.6 57.54"/><path d="M10,80.57h14.75l1.26-3.42c.06-.15,.16-.28,.3-.37l7.31-4.71H10v8.5Z"/><path d="M43.46,72.07h-7.73c0,.25-.11,.49-.33,.63l-8.07,5.2-.98,2.67h28.97l9.36-4.74-2.2-3.35c-.08-.13-.11-.27-.11-.41h-18.9Z"/><path d="M68.71,72.07h-4.71l2.39,3.64c.12,.18,.15,.4,.1,.6-.05,.21-.2,.38-.39,.48l-7.46,3.78h31.36v-8.5h-21.29Z"/><polygon points="15.53 37.07 23.43 37.07 33.91 37.07 41.81 37.07 54.02 37.07 51.79 29.03 51.79 28.57 10 28.57 10 37.07 15.53 37.07"/><polygon points="43.46 12.07 39.46 7.93 5 27.07 10 27.07 51.79 27.07 51.79 18.43 49.7 11.52 43.46 12.07"/><path d="M60.57,86.47l-6.9-3.74c-.24-.13-.39-.38-.39-.66H25.8l-.1,.26c-.07,.2-.23,.36-.43,.44l-7.89,3.08-1.61,6.23H59.26c0-.06,0-.12,0-.17l1.29-5.42Z"/><path d="M16.02,85.1c.06-.23,.23-.42,.45-.51l6.46-2.52H5v10H14.26c0-.06,0-.12,.01-.19l1.75-6.79Z"/><path d="M60.77,92.07h34.23v-10H55.68l-.04,.02,6.15,3.34c.3,.16,.45,.5,.37,.83l-1.39,5.81Z"/><text x="0" y="115" fill="#000000" font-size="5px" font-weight="bold" font-family="'Helvetica Neue', Helvetica, Arial-Unicode, Arial, Sans-serif">Created by Lars Meiertoberens</text><text x="0" y="120" fill="#000000" font-size="5px" font-weight="bold" font-family="'Helvetica Neue', Helvetica, Arial-Unicode, Arial, Sans-serif">from the Noun Project</text></svg>